<?xml version="1.0" encoding="utf-8"?>
<!-- Generator: Adobe Illustrator 27.0.0, SVG Export Plug-In . SVG Version: 6.00 Build 0)  -->
<svg version="1.2" baseProfile="tiny" id="Flipper_Zero_ProtoType_PCB_Small_Reduced_Silkscreen"
	 xmlns="http://www.w3.org/2000/svg" xmlns:xlink="http://www.w3.org/1999/xlink" x="0px" y="0px" width="224.25px"
	 height="93.49px" viewBox="0 0 224.25 93.49" overflow="visible" xml:space="preserve">
<g id="board">
	<path id="boardoutline" fill="#FFFFFF" fill-opacity="0.5" d="M111.97,0.97c33.07,0,66.15,0.01,99.22-0.02
		c3.1,0,6.03,0.39,8.64,2.2c2.25,1.56,3.53,3.66,3.58,6.43c0.04,2.54,0.03,5.07,0.03,7.61c0,19.54-0.19,39.09,0.1,58.62
		c0.11,7.57-5.12,10.51-10.84,10.76c-3.88,0.17-7.77,0.13-11.65,0.03c-1.56-0.04-2.01,0.63-2.08,2c-0.21,4.01-0.23,4.01-4.24,4.01
		c-21.82,0-43.63,0-65.45,0c-0.45,0-0.9,0.01-1.34-0.02c-1.21-0.07-1.86-0.56-1.89-1.93c-0.08-4.04-0.13-4.05-4.24-4.05
		c-12-0.01-24.01-0.01-36.01-0.01c-1.98,0-2.37,0.37-2.4,2.32c-0.06,3.88,0.62,3.67-3.87,3.67c-16.74,0-33.47,0.01-50.21,0.01
		c-0.65,0-1.3,0.01-1.94-0.02c-1.97-0.08-2.18-0.3-2.19-2.31c-0.02-3.92,0.5-3.62-3.73-3.67c-3.14-0.03-6.28-0.01-9.41-0.03
		c-3.44-0.03-6.61-0.89-9.08-3.39c-1.39-1.41-2.35-3.11-2.33-5.25c0.04-6.61,0.02-13.23,0.01-19.84c0-15.76,0.12-31.53-0.09-47.29
		C0.49,5.63,3.75,2.4,8.02,1.42c1.34-0.31,2.75-0.44,4.13-0.44C45.42,0.96,78.69,0.96,111.97,0.97
		C111.97,0.96,111.97,0.97,111.97,0.97z"/>
</g>
<g id="silkscreen0">
	<path id="silkscreen0_path" fill="none" stroke="#000000" stroke-miterlimit="10" d="M111.97,0.97c33.07,0,66.15,0.01,99.22-0.02
		c3.1,0,6.03,0.39,8.64,2.2c2.25,1.56,3.53,3.66,3.58,6.43c0.04,2.54,0.03,5.07,0.03,7.61c0,19.54-0.19,39.09,0.1,58.62
		c0.11,7.57-5.12,10.51-10.84,10.76c-3.88,0.17-7.77,0.13-11.65,0.03c-1.56-0.04-2.01,0.63-2.08,2c-0.21,4.01-0.23,4.01-4.24,4.01
		c-21.82,0-43.63,0-65.45,0c-0.45,0-0.9,0.01-1.34-0.02c-1.21-0.07-1.86-0.56-1.89-1.93c-0.08-4.04-0.13-4.05-4.24-4.05
		c-12-0.01-24.01-0.01-36.01-0.01c-1.98,0-2.37,0.37-2.4,2.32c-0.06,3.88,0.62,3.67-3.87,3.67c-16.74,0-33.47,0.01-50.21,0.01
		c-0.65,0-1.3,0.01-1.94-0.02c-1.97-0.08-2.18-0.3-2.19-2.31c-0.02-3.92,0.5-3.62-3.73-3.67c-3.14-0.03-6.28-0.01-9.41-0.03
		c-3.44-0.03-6.61-0.89-9.08-3.39c-1.39-1.41-2.35-3.11-2.33-5.25c0.04-6.61,0.02-13.23,0.01-19.84c0-15.76,0.12-31.53-0.09-47.29
		C0.49,5.63,3.75,2.4,8.02,1.42c1.34-0.31,2.75-0.44,4.13-0.44C45.42,0.96,78.69,0.96,111.97,0.97
		C111.97,0.96,111.97,0.97,111.97,0.97z"/>
	<text transform="matrix(1 0 0 1 27.7037 91.2891)" font-family="'OCRA'" font-size="4px">1</text>
	<text transform="matrix(1 0 0 1 34.9037 91.2905)" font-family="'OCRA'" font-size="4px">2</text>
	<text transform="matrix(1 0 0 1 42.104 91.289)" font-family="'OCRA'" font-size="4px">3</text>
	<text transform="matrix(1 0 0 1 49.3038 91.2887)" font-family="'OCRA'" font-size="4px">4</text>
	<text transform="matrix(1 0 0 1 56.5041 91.2884)" font-family="'OCRA'" font-size="4px">5</text>
	<text transform="matrix(1 0 0 1 63.7039 91.2883)" font-family="'OCRA'" font-size="4px">6</text>
	<text transform="matrix(1 0 0 1 70.9037 91.288)" font-family="'OCRA'" font-size="4px">7</text>
	<text transform="matrix(1 0 0 1 78.104 91.2877)" font-family="'OCRA'" font-size="4px">8</text>
	<text transform="matrix(1 0 0 1 128.6802 91.2905)" font-family="'OCRA'" font-size="4px">9</text>
	<text transform="matrix(1 0 0 1 133.958 91.2902)" font-family="'OCRA'" font-size="4px">10</text>
	<text transform="matrix(1 0 0 1 141.7204 91.2902)" font-family="'OCRA'" font-size="4px">11</text>
	<text transform="matrix(1 0 0 1 148.5394 91.2902)" font-family="'OCRA'" font-size="4px">12</text>
	<text transform="matrix(1 0 0 1 155.7253 91.2905)" font-family="'OCRA'" font-size="4px">13</text>
	<text transform="matrix(1 0 0 1 163.0509 91.2898)" font-family="'OCRA'" font-size="4px">14</text>
	<text transform="matrix(1 0 0 1 170.2372 91.2906)" font-family="'OCRA'" font-size="4px">15</text>
	<text transform="matrix(1 0 0 1 177.8418 91.2899)" font-family="'OCRA'" font-size="4px">16</text>
	<text transform="matrix(1 0 0 1 184.8184 91.2895)" font-family="'OCRA'" font-size="4px">17</text>
	<text transform="matrix(1 0 0 1 192.1438 91.2891)" font-family="'OCRA'" font-size="4px">18</text>
</g>
<g id="silkscreen">
	<text transform="matrix(1 0 0 1 27.7037 91.2891)" font-family="'OCRA'" font-size="4px">1</text>
	<text transform="matrix(1 0 0 1 34.9037 91.2905)" font-family="'OCRA'" font-size="4px">2</text>
	<text transform="matrix(1 0 0 1 42.104 91.289)" font-family="'OCRA'" font-size="4px">3</text>
	<text transform="matrix(1 0 0 1 49.3038 91.2887)" font-family="'OCRA'" font-size="4px">4</text>
	<text transform="matrix(1 0 0 1 56.5041 91.2884)" font-family="'OCRA'" font-size="4px">5</text>
	<text transform="matrix(1 0 0 1 63.7039 91.2883)" font-family="'OCRA'" font-size="4px">6</text>
	<text transform="matrix(1 0 0 1 70.9037 91.288)" font-family="'OCRA'" font-size="4px">7</text>
	<text transform="matrix(1 0 0 1 78.104 91.2877)" font-family="'OCRA'" font-size="4px">8</text>
	<text transform="matrix(1 0 0 1 128.6802 91.2905)" font-family="'OCRA'" font-size="4px">9</text>
	<text transform="matrix(1 0 0 1 133.958 91.2902)" font-family="'OCRA'" font-size="4px">10</text>
	<text transform="matrix(1 0 0 1 141.7204 91.2902)" font-family="'OCRA'" font-size="4px">11</text>
	<text transform="matrix(1 0 0 1 148.5394 91.2902)" font-family="'OCRA'" font-size="4px">12</text>
	<text transform="matrix(1 0 0 1 155.7253 91.2905)" font-family="'OCRA'" font-size="4px">13</text>
	<text transform="matrix(1 0 0 1 163.0509 91.2898)" font-family="'OCRA'" font-size="4px">14</text>
	<text transform="matrix(1 0 0 1 170.2372 91.2906)" font-family="'OCRA'" font-size="4px">15</text>
	<text transform="matrix(1 0 0 1 177.8418 91.2899)" font-family="'OCRA'" font-size="4px">16</text>
	<text transform="matrix(1 0 0 1 184.8184 91.2895)" font-family="'OCRA'" font-size="4px">17</text>
	<text transform="matrix(1 0 0 1 192.1438 91.2891)" font-family="'OCRA'" font-size="4px">18</text>
	<path id="silkscreen_path" fill="none" stroke="#000000" stroke-miterlimit="10" d="M111.97,0.97c33.07,0,66.15,0.01,99.22-0.02
		c3.1,0,6.03,0.39,8.64,2.2c2.25,1.56,3.53,3.66,3.58,6.43c0.04,2.54,0.03,5.07,0.03,7.61c0,19.54-0.19,39.09,0.1,58.62
		c0.11,7.57-5.12,10.51-10.84,10.76c-3.88,0.17-7.77,0.13-11.65,0.03c-1.56-0.04-2.01,0.63-2.08,2c-0.21,4.01-0.23,4.01-4.24,4.01
		c-21.82,0-43.63,0-65.45,0c-0.45,0-0.9,0.01-1.34-0.02c-1.21-0.07-1.86-0.56-1.89-1.93c-0.08-4.04-0.13-4.05-4.24-4.05
		c-12-0.01-24.01-0.01-36.01-0.01c-1.98,0-2.37,0.37-2.4,2.32c-0.06,3.88,0.62,3.67-3.87,3.67c-16.74,0-33.47,0.01-50.21,0.01
		c-0.65,0-1.3,0.01-1.94-0.02c-1.97-0.08-2.18-0.3-2.19-2.31c-0.02-3.92,0.5-3.62-3.73-3.67c-3.14-0.03-6.28-0.01-9.41-0.03
		c-3.44-0.03-6.61-0.89-9.08-3.39c-1.39-1.41-2.35-3.11-2.33-5.25c0.04-6.61,0.02-13.23,0.01-19.84c0-15.76,0.12-31.53-0.09-47.29
		C0.49,5.63,3.75,2.4,8.02,1.42c1.34-0.31,2.75-0.44,4.13-0.44C45.42,0.96,78.69,0.96,111.97,0.97
		C111.97,0.96,111.97,0.97,111.97,0.97z"/>
</g>
</svg>
