<?xml version="1.0" encoding="utf-8"?>
<!-- Generator: Adobe Illustrator 27.0.0, SVG Export Plug-In . SVG Version: 6.00 Build 0)  -->
<svg version="1.2" baseProfile="tiny" id="Flipper_Zero_ProtoType_PCB_Small_Reduced_Silkscreen"
	 xmlns="http://www.w3.org/2000/svg" xmlns:xlink="http://www.w3.org/1999/xlink" x="0px" y="0px" width="224.25px"
	 height="93.49px" viewBox="0 0 224.25 93.49" overflow="visible" xml:space="preserve">
<g id="board">
	<g id="boardoutline">
		<path fill="#FFFFFF" fill-opacity="0.5" d="M111.97,0.97c33.07,0,66.15,0.01,99.22-0.02c3.1,0,6.03,0.39,8.64,2.2c2.25,1.56,3.53,3.66,3.58,6.43
			c0.04,2.54,0.03,5.07,0.03,7.61c0,19.54-0.19,39.09,0.1,58.62c0.11,7.57-5.12,10.51-10.84,10.76c-3.88,0.17-7.77,0.13-11.65,0.03
			c-1.56-0.04-2.01,0.63-2.08,2c-0.21,4.01-0.23,4.01-4.24,4.01c-21.82,0-43.63,0-65.45,0c-0.45,0-0.9,0.01-1.34-0.02
			c-1.21-0.07-1.86-0.56-1.89-1.93c-0.08-4.04-0.13-4.05-4.24-4.05c-12-0.01-24.01-0.01-36.01-0.01c-1.98,0-2.37,0.37-2.4,2.32
			c-0.06,3.88,0.62,3.67-3.87,3.67c-16.74,0-33.47,0.01-50.21,0.01c-0.65,0-1.3,0.01-1.94-0.02c-1.97-0.08-2.18-0.3-2.19-2.31
			c-0.02-3.92,0.5-3.62-3.73-3.67c-3.14-0.03-6.28-0.01-9.41-0.03c-3.44-0.03-6.61-0.89-9.08-3.39c-1.39-1.41-2.35-3.11-2.33-5.25
			c0.04-6.61,0.02-13.23,0.01-19.84c0-15.76,0.12-31.53-0.09-47.29C0.49,5.63,3.75,2.4,8.02,1.42c1.34-0.31,2.75-0.44,4.13-0.44
			C45.42,0.96,78.69,0.96,111.97,0.97C111.97,0.96,111.97,0.97,111.97,0.97z"/>
	</g>
</g>
<g id="silkscreen0">
	
		<circle id="Hole_Bottom_Right_00000053518736507561392190000006751074337566534316_" stroke="#000000" stroke-miterlimit="10" cx="213.09" cy="75.23" fill-opacity="0.5" r="4.54"/>
	
		<circle id="Hole_Bottom_Left_00000138552674396318755330000017098778297742034325_" stroke="#000000" stroke-miterlimit="10" cx="11.02" cy="75.58" fill-opacity="0.5" r="4.54"/>
	
		<circle id="Hole_Top_Right_00000014633276746712670790000006701780220670948786_" stroke="#000000" stroke-miterlimit="10" cx="213.09" cy="11.07" fill-opacity="0.5" r="4.54"/>
	
		<circle id="Hole_Top_Left_00000047056386945198776820000016443770562888677516_" stroke="#000000" stroke-miterlimit="10" cx="11.02" cy="11.41" fill-opacity="0.5" r="4.54"/>
	
		<path id="silkscreen0_path" fill="none" stroke="#000000" stroke-miterlimit="10" d="
		M111.97,0.97c33.07,0,66.15,0.01,99.22-0.02c3.1,0,6.03,0.39,8.64,2.2c2.25,1.56,3.53,3.66,3.58,6.43
		c0.04,2.54,0.03,5.07,0.03,7.61c0,19.54-0.19,39.09,0.1,58.62c0.11,7.57-5.12,10.51-10.84,10.76c-3.88,0.17-7.77,0.13-11.65,0.03
		c-1.56-0.04-2.01,0.63-2.08,2c-0.21,4.01-0.23,4.01-4.24,4.01c-21.82,0-43.63,0-65.45,0c-0.45,0-0.9,0.01-1.34-0.02
		c-1.21-0.07-1.86-0.56-1.89-1.93c-0.08-4.04-0.13-4.05-4.24-4.05c-12-0.01-24.01-0.01-36.01-0.01c-1.98,0-2.37,0.37-2.4,2.32
		c-0.06,3.88,0.62,3.67-3.87,3.67c-16.74,0-33.47,0.01-50.21,0.01c-0.65,0-1.3,0.01-1.94-0.02c-1.97-0.08-2.18-0.3-2.19-2.31
		c-0.02-3.92,0.5-3.62-3.73-3.67c-3.14-0.03-6.28-0.01-9.41-0.03c-3.44-0.03-6.61-0.89-9.08-3.39c-1.39-1.41-2.35-3.11-2.33-5.25
		c0.04-6.61,0.02-13.23,0.01-19.84c0-15.76,0.12-31.53-0.09-47.29C0.49,5.63,3.75,2.4,8.02,1.42c1.34-0.31,2.75-0.44,4.13-0.44
		C45.42,0.96,78.69,0.96,111.97,0.97C111.97,0.96,111.97,0.97,111.97,0.97z"/>
	<line fill="none" stroke="#000000" stroke-miterlimit="10" x1="25.21" y1="56.61" x2="25.21" y2="87.02"/>
	<line fill="none" stroke="#000000" stroke-miterlimit="10" x1="25.21" y1="87.02" x2="82.89" y2="87.02"/>
	<line fill="none" stroke="#000000" stroke-linecap="square" stroke-miterlimit="10" x1="32.56" y1="57.25" x2="32.56" y2="87.02"/>
	<line fill="none" stroke="#000000" stroke-linecap="square" stroke-miterlimit="10" x1="75.82" y1="57" x2="75.82" y2="87.02"/>
	<line fill="none" stroke="#000000" stroke-linecap="square" stroke-miterlimit="10" x1="82.89" y1="57.25" x2="82.89" y2="87.02"/>
	<line fill="none" stroke="#000000" stroke-linecap="square" stroke-miterlimit="10" x1="82.89" y1="56.93" x2="25.21" y2="56.93"/>
	<line fill="none" stroke="#000000" stroke-linecap="square" stroke-miterlimit="10" x1="25.21" y1="79.67" x2="82.89" y2="79.67"/>
	<line fill="none" stroke="#000000" stroke-linecap="square" stroke-miterlimit="10" x1="25.21" y1="72.41" x2="82.89" y2="72.41"/>
	<line fill="none" stroke="#000000" stroke-linecap="square" stroke-miterlimit="10" x1="39.54" y1="87.02" x2="39.54" y2="57.08"/>
	<line fill="none" stroke="#000000" stroke-linecap="square" stroke-miterlimit="10" x1="46.8" y1="57.17" x2="46.8" y2="87.02"/>
	<line fill="none" stroke="#000000" stroke-linecap="square" stroke-miterlimit="10" x1="54.05" y1="87.02" x2="54.05" y2="57.12"/>
	<line fill="none" stroke="#000000" stroke-linecap="square" stroke-miterlimit="10" x1="61.31" y1="57.06" x2="61.31" y2="87.02"/>
	<line fill="none" stroke="#000000" stroke-linecap="square" stroke-miterlimit="10" x1="68.47" y1="87.02" x2="68.47" y2="57.04"/>
	<text transform="matrix(1 0 0 1 27.7037 91.2891)" font-family="'OCRA'" font-size="4px">1</text>
	<text transform="matrix(1 0 0 1 34.9037 91.2905)" font-family="'OCRA'" font-size="4px">2</text>
	<text transform="matrix(1 0 0 1 42.104 91.289)" font-family="'OCRA'" font-size="4px">3</text>
	<text transform="matrix(1 0 0 1 49.3038 91.2887)" font-family="'OCRA'" font-size="4px">4</text>
	<text transform="matrix(1 0 0 1 56.5041 91.2884)" font-family="'OCRA'" font-size="4px">5</text>
	<text transform="matrix(1 0 0 1 63.7039 91.2883)" font-family="'OCRA'" font-size="4px">6</text>
	<text transform="matrix(1 0 0 1 70.9037 91.288)" font-family="'OCRA'" font-size="4px">7</text>
	<text transform="matrix(1 0 0 1 78.104 91.2877)" font-family="'OCRA'" font-size="4px">8</text>
	
		<line fill="none" stroke="#000000" stroke-linecap="square" stroke-miterlimit="10" x1="126.14" y1="57.47" x2="126.14" y2="87.02"/>
	
		<line fill="none" stroke="#000000" stroke-linecap="square" stroke-miterlimit="10" x1="198.28" y1="87.02" x2="126.14" y2="87.02"/>
	
		<line fill="none" stroke="#000000" stroke-linecap="square" stroke-miterlimit="10" x1="198.28" y1="57.22" x2="198.28" y2="87.02"/>
	<line fill="none" stroke="#000000" stroke-miterlimit="10" x1="133.12" y1="87.02" x2="133.12" y2="56.5"/>
	<line fill="none" stroke="#000000" stroke-miterlimit="10" x1="140.52" y1="87.02" x2="140.52" y2="56.61"/>
	<line fill="none" stroke="#000000" stroke-miterlimit="10" x1="147.91" y1="87.02" x2="147.91" y2="56.8"/>
	<line fill="none" stroke="#000000" stroke-miterlimit="10" x1="154.89" y1="87.02" x2="154.89" y2="56.78"/>
	<line fill="none" stroke="#000000" stroke-miterlimit="10" x1="162.21" y1="87.02" x2="162.21" y2="56.48"/>
	<line fill="none" stroke="#000000" stroke-miterlimit="10" x1="169.4" y1="87.02" x2="169.4" y2="56.75"/>
	<line fill="none" stroke="#000000" stroke-miterlimit="10" x1="176.8" y1="87.02" x2="176.8" y2="56.75"/>
	<line fill="none" stroke="#000000" stroke-miterlimit="10" x1="183.91" y1="87.02" x2="183.91" y2="56.55"/>
	<line fill="none" stroke="#000000" stroke-miterlimit="10" x1="191.17" y1="87.02" x2="191.17" y2="56.65"/>
	
		<line fill="none" stroke="#000000" stroke-linecap="square" stroke-miterlimit="10" x1="126.14" y1="56.93" x2="198.28" y2="56.93"/>
	
		<line fill="none" stroke="#000000" stroke-linecap="square" stroke-miterlimit="10" x1="198.28" y1="72.41" x2="126.14" y2="72.41"/>
	
		<line fill="none" stroke="#000000" stroke-linecap="square" stroke-miterlimit="10" x1="126.14" y1="79.67" x2="198.28" y2="79.67"/>
	<text transform="matrix(1 0 0 1 128.6802 91.2905)" font-family="'OCRA'" font-size="4px">9</text>
	<text transform="matrix(1 0 0 1 133.958 91.2902)" font-family="'OCRA'" font-size="4px">10</text>
	<text transform="matrix(1 0 0 1 141.7204 91.2902)" font-family="'OCRA'" font-size="4px">11</text>
	<text transform="matrix(1 0 0 1 148.5394 91.2902)" font-family="'OCRA'" font-size="4px">12</text>
	<text transform="matrix(1 0 0 1 155.7253 91.2905)" font-family="'OCRA'" font-size="4px">13</text>
	<text transform="matrix(1 0 0 1 163.0509 91.2898)" font-family="'OCRA'" font-size="4px">14</text>
	<text transform="matrix(1 0 0 1 170.2372 91.2906)" font-family="'OCRA'" font-size="4px">15</text>
	<text transform="matrix(1 0 0 1 177.8418 91.2899)" font-family="'OCRA'" font-size="4px">16</text>
	<text transform="matrix(1 0 0 1 184.8184 91.2895)" font-family="'OCRA'" font-size="4px">17</text>
	<text transform="matrix(1 0 0 1 192.1438 91.2891)" font-family="'OCRA'" font-size="4px">18</text>
	<text transform="matrix(0 -1 1 0 131.0959 71.4951)" font-family="'OCRA'" font-size="4px">3.3V</text>
	<text transform="matrix(0 -1 1 0 138.3656 71.498)" font-family="'OCRA'" font-size="4px">SWCLK</text>
	<text transform="matrix(0 -1 1 0 145.6526 71.4951)" font-family="'OCRA'" font-size="4px">GND</text>
	<text transform="matrix(0 -1 1 0 152.7686 71.4971)" font-family="'OCRA'" font-size="4px">SWDIO</text>
	<text transform="matrix(0 -1 1 0 159.9895 71.4971)" font-family="'OCRA'" font-size="4px">U_TX</text>
	<text transform="matrix(0 -1 1 0 167.2686 71.4961)" font-family="'OCRA'" font-size="4px">U_RX</text>
	<text transform="matrix(0 -1 1 0 174.7144 71.4961)" font-family="'OCRA'" font-size="4px">PC1</text>
	<text transform="matrix(0 -1 1 0 181.7919 71.4951)" font-family="'OCRA'" font-size="4px">PC0</text>
	<text transform="matrix(0 -1 1 0 189.1145 71.498)" font-family="'OCRA'" font-size="4px">PB14</text>
	<text transform="matrix(0 -1 1 0 196.3143 71.4951)" font-family="'OCRA'" font-size="4px">GND</text>
	<text transform="matrix(0 -1 1 0 30.2264 71.5)" font-family="'OCRA'" font-size="4px">5V</text>
	<text transform="matrix(0 -1 1 0 37.5135 71.4961)" font-family="'OCRA'" font-size="4px">PA7</text>
	<text transform="matrix(0 -1 1 0 44.6296 71.4961)" font-family="'OCRA'" font-size="4px">PA6</text>
	<text transform="matrix(0 -1 1 0 52.1385 71.4961)" font-family="'OCRA'" font-size="4px">PA4</text>
	<text transform="matrix(0 -1 1 0 59.3386 71.4961)" font-family="'OCRA'" font-size="4px">SWO</text>
	<text transform="matrix(-4.740000e-03 -1 1 -4.740000e-03 66.2825 71.4814)" font-family="'OCRA'" font-size="4px">PB2</text>
	<text transform="matrix(-4.740000e-03 -1 1 -4.740000e-03 73.7435 71.4814)" font-family="'OCRA'" font-size="4px">PC3</text>
	<text transform="matrix(0 -1 1 0 80.6296 71.4971)" font-family="'OCRA'" font-size="4px">GND</text>
</g>
<g id="silkscreen">
	<line fill="none" stroke="#000000" stroke-miterlimit="10" x1="25.21" y1="56.83" x2="25.21" y2="87.02"/>
	<line fill="none" stroke="#000000" stroke-miterlimit="10" x1="25.21" y1="87.02" x2="82.89" y2="87.02"/>
	<line fill="none" stroke="#000000" stroke-linecap="square" stroke-miterlimit="10" x1="32.56" y1="57.11" x2="32.56" y2="87.02"/>
	<line fill="none" stroke="#000000" stroke-linecap="square" stroke-miterlimit="10" x1="75.82" y1="57.2" x2="75.82" y2="87.02"/>
	<line fill="none" stroke="#000000" stroke-linecap="square" stroke-miterlimit="10" x1="82.89" y1="57.04" x2="82.89" y2="87.02"/>
	<line fill="none" stroke="#000000" stroke-linecap="square" stroke-miterlimit="10" x1="82.89" y1="56.93" x2="25.21" y2="56.93"/>
	<line fill="none" stroke="#000000" stroke-linecap="square" stroke-miterlimit="10" x1="25.21" y1="79.67" x2="82.89" y2="79.67"/>
	<line fill="none" stroke="#000000" stroke-linecap="square" stroke-miterlimit="10" x1="25.21" y1="72.41" x2="82.89" y2="72.41"/>
	<line fill="none" stroke="#000000" stroke-linecap="square" stroke-miterlimit="10" x1="39.54" y1="87.02" x2="39.54" y2="57.14"/>
	<line fill="none" stroke="#000000" stroke-linecap="square" stroke-miterlimit="10" x1="46.8" y1="57.18" x2="46.8" y2="87.02"/>
	<line fill="none" stroke="#000000" stroke-linecap="square" stroke-miterlimit="10" x1="54.05" y1="87.02" x2="54.05" y2="57.15"/>
	<line fill="none" stroke="#000000" stroke-linecap="square" stroke-miterlimit="10" x1="61.31" y1="57.19" x2="61.31" y2="87.02"/>
	<line fill="none" stroke="#000000" stroke-linecap="square" stroke-miterlimit="10" x1="68.47" y1="87.02" x2="68.47" y2="57.14"/>
	<text transform="matrix(1 0 0 1 27.7037 91.2891)" font-family="'OCRA'" font-size="4px">1</text>
	<text transform="matrix(1 0 0 1 34.9037 91.2905)" font-family="'OCRA'" font-size="4px">2</text>
	<text transform="matrix(1 0 0 1 42.104 91.289)" font-family="'OCRA'" font-size="4px">3</text>
	<text transform="matrix(1 0 0 1 49.3038 91.2887)" font-family="'OCRA'" font-size="4px">4</text>
	<text transform="matrix(1 0 0 1 56.5041 91.2884)" font-family="'OCRA'" font-size="4px">5</text>
	<text transform="matrix(1 0 0 1 63.7039 91.2883)" font-family="'OCRA'" font-size="4px">6</text>
	<text transform="matrix(1 0 0 1 70.9037 91.288)" font-family="'OCRA'" font-size="4px">7</text>
	<text transform="matrix(1 0 0 1 78.104 91.2877)" font-family="'OCRA'" font-size="4px">8</text>
	
		<line fill="none" stroke="#000000" stroke-linecap="square" stroke-miterlimit="10" x1="126.14" y1="56.98" x2="126.14" y2="87.02"/>
	
		<line fill="none" stroke="#000000" stroke-linecap="square" stroke-miterlimit="10" x1="198.28" y1="87.02" x2="126.14" y2="87.02"/>
	
		<line fill="none" stroke="#000000" stroke-linecap="square" stroke-miterlimit="10" x1="198.28" y1="56.92" x2="198.28" y2="87.02"/>
	<line fill="none" stroke="#000000" stroke-miterlimit="10" x1="133.12" y1="87.02" x2="133.12" y2="56.94"/>
	<line fill="none" stroke="#000000" stroke-miterlimit="10" x1="140.52" y1="87.02" x2="140.52" y2="56.76"/>
	<line fill="none" stroke="#000000" stroke-miterlimit="10" x1="147.91" y1="87.02" x2="147.91" y2="56.73"/>
	<line fill="none" stroke="#000000" stroke-miterlimit="10" x1="154.89" y1="87.02" x2="154.89" y2="56.58"/>
	<line fill="none" stroke="#000000" stroke-miterlimit="10" x1="162.21" y1="87.02" x2="162.21" y2="56.51"/>
	<line fill="none" stroke="#000000" stroke-miterlimit="10" x1="169.4" y1="87.02" x2="169.4" y2="56.54"/>
	<line fill="none" stroke="#000000" stroke-miterlimit="10" x1="176.8" y1="87.02" x2="176.8" y2="56.69"/>
	<line fill="none" stroke="#000000" stroke-miterlimit="10" x1="183.91" y1="87.02" x2="183.91" y2="56.61"/>
	<line fill="none" stroke="#000000" stroke-miterlimit="10" x1="191.17" y1="87.02" x2="191.17" y2="56.68"/>
	
		<line fill="none" stroke="#000000" stroke-linecap="square" stroke-miterlimit="10" x1="126.14" y1="56.93" x2="198.28" y2="56.93"/>
	
		<line fill="none" stroke="#000000" stroke-linecap="square" stroke-miterlimit="10" x1="198.28" y1="72.41" x2="126.14" y2="72.41"/>
	
		<line fill="none" stroke="#000000" stroke-linecap="square" stroke-miterlimit="10" x1="126.14" y1="79.67" x2="198.28" y2="79.67"/>
	<text transform="matrix(1 0 0 1 128.6802 91.2905)" font-family="'OCRA'" font-size="4px">9</text>
	<text transform="matrix(1 0 0 1 133.958 91.2902)" font-family="'OCRA'" font-size="4px">10</text>
	<text transform="matrix(1 0 0 1 141.7204 91.2902)" font-family="'OCRA'" font-size="4px">11</text>
	<text transform="matrix(1 0 0 1 148.5394 91.2902)" font-family="'OCRA'" font-size="4px">12</text>
	<text transform="matrix(1 0 0 1 155.7253 91.2905)" font-family="'OCRA'" font-size="4px">13</text>
	<text transform="matrix(1 0 0 1 163.0509 91.2898)" font-family="'OCRA'" font-size="4px">14</text>
	<text transform="matrix(1 0 0 1 170.2372 91.2906)" font-family="'OCRA'" font-size="4px">15</text>
	<text transform="matrix(1 0 0 1 177.8418 91.2899)" font-family="'OCRA'" font-size="4px">16</text>
	<text transform="matrix(1 0 0 1 184.8184 91.2895)" font-family="'OCRA'" font-size="4px">17</text>
	<text transform="matrix(1 0 0 1 192.1438 91.2891)" font-family="'OCRA'" font-size="4px">18</text>
	<text transform="matrix(0 -1 1 0 131.0959 71.4951)" font-family="'OCRA'" font-size="4px">3.3V</text>
	<text transform="matrix(0 -1 1 0 138.3656 71.498)" font-family="'OCRA'" font-size="4px">SWCLK</text>
	<text transform="matrix(0 -1 1 0 145.6526 71.4951)" font-family="'OCRA'" font-size="4px">GND</text>
	<text transform="matrix(0 -1 1 0 152.7686 71.4971)" font-family="'OCRA'" font-size="4px">SWDIO</text>
	<text transform="matrix(0 -1 1 0 159.9895 71.4971)" font-family="'OCRA'" font-size="4px">U_TX</text>
	<text transform="matrix(0 -1 1 0 167.2686 71.4961)" font-family="'OCRA'" font-size="4px">U_RX</text>
	<text transform="matrix(0 -1 1 0 174.7144 71.4961)" font-family="'OCRA'" font-size="4px">PC1</text>
	<text transform="matrix(0 -1 1 0 181.7919 71.4951)" font-family="'OCRA'" font-size="4px">PC0</text>
	<text transform="matrix(0 -1 1 0 189.1145 71.498)" font-family="'OCRA'" font-size="4px">PB14</text>
	<text transform="matrix(0 -1 1 0 196.3143 71.4951)" font-family="'OCRA'" font-size="4px">GND</text>
	<text transform="matrix(0 -1 1 0 30.2264 71.5)" font-family="'OCRA'" font-size="4px">5V</text>
	<text transform="matrix(0 -1 1 0 37.5135 71.4961)" font-family="'OCRA'" font-size="4px">PA7</text>
	<text transform="matrix(0 -1 1 0 44.6296 71.4961)" font-family="'OCRA'" font-size="4px">PA6</text>
	<text transform="matrix(0 -1 1 0 52.1385 71.4961)" font-family="'OCRA'" font-size="4px">PA4</text>
	<text transform="matrix(0 -1 1 0 59.3386 71.4961)" font-family="'OCRA'" font-size="4px">SWO</text>
	<text transform="matrix(-4.740000e-03 -1 1 -4.740000e-03 66.2825 71.4814)" font-family="'OCRA'" font-size="4px">PB2</text>
	<text transform="matrix(-4.740000e-03 -1 1 -4.740000e-03 73.7435 71.4814)" font-family="'OCRA'" font-size="4px">PC3</text>
	<text transform="matrix(0 -1 1 0 80.6296 71.4971)" font-family="'OCRA'" font-size="4px">GND</text>
	
		<circle id="Hole_Bottom_Right_00000141428061921564176000000014537584658785845686_" stroke="#000000" stroke-miterlimit="10" cx="213.09" cy="75.23" fill-opacity="0.5" r="4.54"/>
	
		<circle id="Hole_Bottom_Left_00000101821203738518422000000013427396278447460750_" stroke="#000000" stroke-miterlimit="10" cx="11.02" cy="75.58" fill-opacity="0.5" r="4.54"/>
	
		<circle id="Hole_Top_Right_00000146498393237023048990000012861411493299110814_" stroke="#000000" stroke-miterlimit="10" cx="213.09" cy="11.07" fill-opacity="0.5" r="4.54"/>
	
		<circle id="Hole_Top_Left_00000047023374305314776570000004440434583117558693_" stroke="#000000" stroke-miterlimit="10" cx="11.02" cy="11.41" fill-opacity="0.5" r="4.54"/>
	
		<path id="silkscreen_path" fill="none" stroke="#000000" stroke-miterlimit="10" d="
		M111.97,0.97c33.07,0,66.15,0.01,99.22-0.02c3.1,0,6.03,0.39,8.64,2.2c2.25,1.56,3.53,3.66,3.58,6.43
		c0.04,2.54,0.03,5.07,0.03,7.61c0,19.54-0.19,39.09,0.1,58.62c0.11,7.57-5.12,10.51-10.84,10.76c-3.88,0.17-7.77,0.13-11.65,0.03
		c-1.56-0.04-2.01,0.63-2.08,2c-0.21,4.01-0.23,4.01-4.24,4.01c-21.82,0-43.63,0-65.45,0c-0.45,0-0.9,0.01-1.34-0.02
		c-1.21-0.07-1.86-0.56-1.89-1.93c-0.08-4.04-0.13-4.05-4.24-4.05c-12-0.01-24.01-0.01-36.01-0.01c-1.98,0-2.37,0.37-2.4,2.32
		c-0.06,3.88,0.62,3.67-3.87,3.67c-16.74,0-33.47,0.01-50.21,0.01c-0.65,0-1.3,0.01-1.94-0.02c-1.97-0.08-2.18-0.3-2.19-2.31
		c-0.02-3.92,0.5-3.62-3.73-3.67c-3.14-0.03-6.28-0.01-9.41-0.03c-3.44-0.03-6.61-0.89-9.08-3.39c-1.39-1.41-2.35-3.11-2.33-5.25
		c0.04-6.61,0.02-13.23,0.01-19.84c0-15.76,0.12-31.53-0.09-47.29C0.49,5.63,3.75,2.4,8.02,1.42c1.34-0.31,2.75-0.44,4.13-0.44
		C45.42,0.96,78.69,0.96,111.97,0.97C111.97,0.96,111.97,0.97,111.97,0.97z"/>
</g>
</svg>
