<?xml version="1.0" encoding="utf-8"?>
<!-- Generator: Adobe Illustrator 27.0.0, SVG Export Plug-In . SVG Version: 6.00 Build 0)  -->
<svg version="1.2" baseProfile="tiny" id="Flipper_Zero_ProtoType_PCB_Large"
	 xmlns="http://www.w3.org/2000/svg" xmlns:xlink="http://www.w3.org/1999/xlink" x="0px" y="0px" width="224.25px"
	 height="150.45px" viewBox="0 0 224.25 150.45" overflow="visible" xml:space="preserve">
<g id="board">
	<path id="boardoutline" fill-opacity="0.5" fill="#FFFFFF" d="M8.03,2.1
		C6.68,2.46,3.75,4.39,2.95,5.42c-1.01,1.32-1.83,3.13-2.36,5.27l-0.53,2.02l0.02,41.64c0.05,60.63,0.17,77.31,0.65,79.55
		c1.13,5.27,4.45,8.57,9.41,9.34c0.77,0.14,4.09,0.19,7.41,0.12c6.5-0.12,6.86-0.05,7.49,1.16c0.17,0.36,0.39,1.52,0.48,2.6
		l0.17,1.95h29.17c26.4,0,29.2-0.05,29.34-0.39c0.07-0.22,0.14-1.28,0.14-2.36c0-3.23-2.38-2.91,21.18-2.98
		c20.17-0.07,20.19-0.07,20.65,0.43c0.48,0.51,0.77,2.07,0.77,4.14v1.16h36.35h36.35v-2.19c0-2.09,0.02-2.21,0.7-2.89l0.7-0.7h6.79
		c7.85,0,9.22-0.19,11.48-1.66c1.95-1.25,3.13-2.53,4-4.36l0.77-1.56l0.07-14.08c0.02-7.75,0.14-35.58,0.26-61.86l0.2-47.77
		l-0.55-1.61c-1.32-3.9-3.18-6.16-6.38-7.75l-1.73-0.87l-103.4,0.02C31.52,1.79,8.9,1.86,8.03,2.1z"/>
</g>
<g id="silkscreen0">
	
		<circle id="Hole_Bottom_Right_00000137106697286815534520000013204495809623795881_" stroke="#000000" stroke-miterlimit="10" cx="213.3" cy="132.37" fill-opacity="0.5" r="4.54"/>
	
		<circle id="Hole_Bottom_Left_00000176014189392744529650000000569741437258394756_" stroke="#000000" stroke-miterlimit="10" cx="11.12" cy="132.37" fill-opacity="0.5" r="4.54"/>
	
		<circle id="Hole_Top_Left_00000122716855738586187920000001252750692714735493_" stroke="#000000" stroke-miterlimit="10" cx="11.12" cy="11.72" fill-opacity="0.5" r="4.54"/>
	<line fill="none" stroke="#000000" stroke-miterlimit="10" x1="25.21" y1="113.57" x2="25.21" y2="143.5"/>
	<line fill="none" stroke="#000000" stroke-miterlimit="10" x1="25.21" y1="143.98" x2="82.89" y2="143.98"/>
	
		<line fill="none" stroke="#000000" stroke-linecap="square" stroke-miterlimit="10" x1="32.56" y1="114.21" x2="32.56" y2="143.98"/>
	
		<line fill="none" stroke="#000000" stroke-linecap="square" stroke-miterlimit="10" x1="75.82" y1="113.96" x2="75.82" y2="143.98"/>
	
		<line fill="none" stroke="#000000" stroke-linecap="square" stroke-miterlimit="10" x1="82.89" y1="114.22" x2="82.89" y2="143.98"/>
	
		<line fill="none" stroke="#000000" stroke-linecap="square" stroke-miterlimit="10" x1="82.89" y1="113.89" x2="25.21" y2="113.89"/>
	
		<line fill="none" stroke="#000000" stroke-linecap="square" stroke-miterlimit="10" x1="25.21" y1="136.63" x2="82.89" y2="136.63"/>
	
		<line fill="none" stroke="#000000" stroke-linecap="square" stroke-miterlimit="10" x1="25.21" y1="129.37" x2="82.89" y2="129.37"/>
	
		<line fill="none" stroke="#000000" stroke-linecap="square" stroke-miterlimit="10" x1="39.54" y1="143.98" x2="39.54" y2="114.05"/>
	<line fill="none" stroke="#000000" stroke-linecap="square" stroke-miterlimit="10" x1="46.8" y1="114.13" x2="46.8" y2="143.98"/>
	
		<line fill="none" stroke="#000000" stroke-linecap="square" stroke-miterlimit="10" x1="54.05" y1="143.98" x2="54.05" y2="114.08"/>
	
		<line fill="none" stroke="#000000" stroke-linecap="square" stroke-miterlimit="10" x1="61.31" y1="114.02" x2="61.31" y2="143.98"/>
	
		<line fill="none" stroke="#000000" stroke-linecap="square" stroke-miterlimit="10" x1="68.47" y1="143.98" x2="68.47" y2="114.01"/>
	<text transform="matrix(1 0 0 1 27.7037 148.2506)" font-family="'OCRA'" font-size="4px">1</text>
	<text transform="matrix(1 0 0 1 34.9037 148.2521)" font-family="'OCRA'" font-size="4px">2</text>
	<text transform="matrix(1 0 0 1 42.104 148.2505)" font-family="'OCRA'" font-size="4px">3</text>
	<text transform="matrix(1 0 0 1 49.3038 148.2502)" font-family="'OCRA'" font-size="4px">4</text>
	<text transform="matrix(1 0 0 1 56.5041 148.2499)" font-family="'OCRA'" font-size="4px">5</text>
	<text transform="matrix(1 0 0 1 63.7039 148.2498)" font-family="'OCRA'" font-size="4px">6</text>
	<text transform="matrix(1 0 0 1 70.9037 148.2495)" font-family="'OCRA'" font-size="4px">7</text>
	
		<circle id="Hole_Top_Right_00000109736713380244235650000009392573511248864401_" stroke="#000000" stroke-miterlimit="10" cx="213.3" cy="11.72" fill-opacity="0.5" r="4.54"/>
	<text transform="matrix(1 0 0 1 78.104 148.2492)" font-family="'OCRA'" font-size="4px">8</text>
	
		<line fill="none" stroke="#000000" stroke-linecap="square" stroke-miterlimit="10" x1="126.14" y1="114.43" x2="126.14" y2="142.45"/>
	
		<line fill="none" stroke="#000000" stroke-linecap="square" stroke-miterlimit="10" x1="198.28" y1="143.98" x2="127.06" y2="143.98"/>
	
		<line fill="none" stroke="#000000" stroke-linecap="square" stroke-miterlimit="10" x1="198.28" y1="114.18" x2="198.28" y2="143.98"/>
	<line fill="none" stroke="#000000" stroke-miterlimit="10" x1="133.12" y1="143.98" x2="133.12" y2="113.46"/>
	<line fill="none" stroke="#000000" stroke-miterlimit="10" x1="140.52" y1="143.98" x2="140.52" y2="113.57"/>
	<line fill="none" stroke="#000000" stroke-miterlimit="10" x1="147.91" y1="143.98" x2="147.91" y2="113.76"/>
	<line fill="none" stroke="#000000" stroke-miterlimit="10" x1="154.89" y1="143.98" x2="154.89" y2="113.74"/>
	<line fill="none" stroke="#000000" stroke-miterlimit="10" x1="162.21" y1="143.98" x2="162.21" y2="113.44"/>
	<line fill="none" stroke="#000000" stroke-miterlimit="10" x1="169.4" y1="143.98" x2="169.4" y2="113.71"/>
	<line fill="none" stroke="#000000" stroke-miterlimit="10" x1="176.8" y1="143.98" x2="176.8" y2="113.71"/>
	<line fill="none" stroke="#000000" stroke-miterlimit="10" x1="183.91" y1="143.98" x2="183.91" y2="113.51"/>
	<line fill="none" stroke="#000000" stroke-miterlimit="10" x1="191.17" y1="143.98" x2="191.17" y2="113.61"/>
	
		<line fill="none" stroke="#000000" stroke-linecap="square" stroke-miterlimit="10" x1="126.14" y1="113.89" x2="198.28" y2="113.89"/>
	
		<line fill="none" stroke="#000000" stroke-linecap="square" stroke-miterlimit="10" x1="198.28" y1="129.37" x2="126.14" y2="129.37"/>
	
		<line fill="none" stroke="#000000" stroke-linecap="square" stroke-miterlimit="10" x1="126.14" y1="136.63" x2="198.28" y2="136.63"/>
	<text transform="matrix(1 0 0 1 128.6802 148.2521)" font-family="'OCRA'" font-size="4px">9</text>
	<text transform="matrix(1 0 0 1 133.958 148.2518)" font-family="'OCRA'" font-size="4px">10</text>
	<text transform="matrix(1 0 0 1 141.7204 148.2517)" font-family="'OCRA'" font-size="4px">11</text>
	<text transform="matrix(1 0 0 1 148.5394 148.2518)" font-family="'OCRA'" font-size="4px">12</text>
	<text transform="matrix(1 0 0 1 155.7253 148.252)" font-family="'OCRA'" font-size="4px">13</text>
	<text transform="matrix(1 0 0 1 163.0509 148.2514)" font-family="'OCRA'" font-size="4px">14</text>
	<text transform="matrix(1 0 0 1 170.2372 148.2521)" font-family="'OCRA'" font-size="4px">15</text>
	<text transform="matrix(1 0 0 1 177.8418 148.2514)" font-family="'OCRA'" font-size="4px">16</text>
	<text transform="matrix(1 0 0 1 184.8184 148.251)" font-family="'OCRA'" font-size="4px">17</text>
	<text transform="matrix(1 0 0 1 192.1438 148.2507)" font-family="'OCRA'" font-size="4px">18</text>
	<text transform="matrix(0 -1 1 0 131.0959 128.457)" font-family="'OCRA'" font-size="4px">3.3V</text>
	<text transform="matrix(0 -1 1 0 138.3656 128.459)" font-family="'OCRA'" font-size="4px">SWCLK</text>
	<text transform="matrix(0 -1 1 0 145.6526 128.457)" font-family="'OCRA'" font-size="4px">GND</text>
	<text transform="matrix(0 -1 1 0 152.7686 128.459)" font-family="'OCRA'" font-size="4px">SWDIO</text>
	<text transform="matrix(0 -1 1 0 159.9895 128.459)" font-family="'OCRA'" font-size="4px">U_TX</text>
	<text transform="matrix(0 -1 1 0 167.2686 128.458)" font-family="'OCRA'" font-size="4px">U_RX</text>
	<text transform="matrix(0 -1 1 0 174.7144 128.458)" font-family="'OCRA'" font-size="4px">PC1</text>
	<text transform="matrix(0 -1 1 0 181.7919 128.457)" font-family="'OCRA'" font-size="4px">PC0</text>
	<text transform="matrix(0 -1 1 0 189.1145 128.459)" font-family="'OCRA'" font-size="4px">PB14</text>
	<text transform="matrix(0 -1 1 0 196.3143 128.457)" font-family="'OCRA'" font-size="4px">GND</text>
	<text transform="matrix(0 -1 1 0 30.2264 128.4609)" font-family="'OCRA'" font-size="4px">5V</text>
	<text transform="matrix(0 -1 1 0 37.5135 128.458)" font-family="'OCRA'" font-size="4px">PA7</text>
	<text transform="matrix(0 -1 1 0 44.6296 128.458)" font-family="'OCRA'" font-size="4px">PA6</text>
	<text transform="matrix(0 -1 1 0 52.1385 128.458)" font-family="'OCRA'" font-size="4px">PA4</text>
	<text transform="matrix(0 -1 1 0 59.3386 128.458)" font-family="'OCRA'" font-size="4px">SWO</text>
	<text transform="matrix(-4.740000e-03 -1 1 -4.740000e-03 66.2825 128.4424)" font-family="'OCRA'" font-size="4px">PB2</text>
	<text transform="matrix(-4.740000e-03 -1 1 -4.740000e-03 73.7435 128.4424)" font-family="'OCRA'" font-size="4px">PC3</text>
	<text transform="matrix(0 -1 1 0 80.6296 128.459)" font-family="'OCRA'" font-size="4px">GND</text>
	<path id="silkscreen0_path" d="M215.71,2.77l1.52,0.76
		c2.94,1.46,4.64,3.54,5.88,7.18l0.5,1.45l-0.19,47.61c-0.11,24.48-0.24,53.6-0.26,61.86l-0.07,13.85l-0.68,1.37
		c-0.78,1.64-1.83,2.79-3.64,3.95c-1.96,1.27-2.95,1.5-10.94,1.5h-6.79h-0.41l-0.29,0.29l-0.7,0.7c-0.99,0.99-0.99,1.49-0.99,3.6
		v1.19H163.3h-35.35v-0.16c0-1.7-0.18-3.92-1.03-4.81c-0.65-0.72-0.72-0.8-8.92-0.8c-2.93,0-6.94,0.01-12.48,0.03
		c-2.06,0.01-3.92,0.01-5.6,0.01c-12.78,0.02-15.08,0.03-16.15,1.18c-0.58,0.63-0.52,1.39-0.47,2.06c0.02,0.22,0.04,0.46,0.04,0.73
		c0,0.62-0.02,1.18-0.05,1.56c-2.04,0.17-10.15,0.18-28.44,0.18H26.62l-0.09-1.04c-0.09-1.02-0.31-2.37-0.59-2.97
		c-0.8-1.53-1.74-1.74-5.06-1.74c-0.88,0-1.97,0.02-3.33,0.04c-1.02,0.02-2.04,0.03-2.99,0.03c-2.41,0-3.86-0.07-4.25-0.14
		c-4.57-0.71-7.54-3.67-8.59-8.56c-0.48-2.24-0.58-22.73-0.63-79.34L1.06,12.85l0.5-1.91c0.49-1.98,1.24-3.67,2.18-4.9
		C4.4,5.19,7.1,3.42,8.25,3.08C9.9,2.86,34.41,2.79,112.53,2.79L215.71,2.77 M215.95,1.77l-103.4,0.02C31.52,1.79,8.9,1.86,8.03,2.1
		C6.68,2.46,3.75,4.39,2.95,5.42c-1.01,1.32-1.83,3.13-2.36,5.27l-0.53,2.02l0.02,41.64c0.05,60.63,0.17,77.31,0.65,79.55
		c1.13,5.27,4.45,8.57,9.41,9.34c0.53,0.1,2.28,0.15,4.4,0.15c0.95,0,1.98-0.01,3.01-0.03c1.35-0.02,2.43-0.04,3.31-0.04
		c3.35,0,3.68,0.24,4.18,1.2c0.17,0.36,0.39,1.52,0.48,2.6l0.17,1.95h29.17c26.4,0,29.2-0.05,29.34-0.39
		c0.07-0.22,0.14-1.28,0.14-2.36c0-3.23-2.38-2.91,21.18-2.98c5.53-0.02,9.55-0.03,12.48-0.03c7.74,0,7.84,0.1,8.18,0.47
		c0.48,0.51,0.77,2.07,0.77,4.14v1.16h36.35h36.35v-2.19c0-2.09,0.02-2.21,0.7-2.89l0.7-0.7h6.79c7.85,0,9.22-0.19,11.48-1.66
		c1.95-1.25,3.13-2.53,4-4.36l0.77-1.56l0.07-14.08c0.02-7.75,0.14-35.58,0.26-61.86L224.61,12l-0.55-1.61
		c-1.32-3.9-3.18-6.16-6.38-7.75L215.95,1.77L215.95,1.77z"/>
</g>
<g id="silkscreen">
	
		<circle id="Hole_Bottom_Right_00000147934989669941140620000011064980857594200717_" stroke="#000000" stroke-miterlimit="10" cx="213.3" cy="132.37" fill-opacity="0.5" r="4.54"/>
	
		<circle id="Hole_Bottom_Left_00000028310938787703497390000001977915811516227748_" stroke="#000000" stroke-miterlimit="10" cx="11.12" cy="132.37" fill-opacity="0.5" r="4.54"/>
	
		<circle id="Hole_Top_Right_00000138562507383431007300000001197288641134847650_" stroke="#000000" stroke-miterlimit="10" cx="213.3" cy="11.72" fill-opacity="0.5" r="4.54"/>
	
		<circle id="Hole_Top_Left_00000080181659681708612990000008829951266419264175_" stroke="#000000" stroke-miterlimit="10" cx="11.12" cy="11.72" fill-opacity="0.5" r="4.54"/>
	<line fill="none" stroke="#000000" stroke-miterlimit="10" x1="25.21" y1="113.57" x2="25.21" y2="143.5"/>
	<line fill="none" stroke="#000000" stroke-miterlimit="10" x1="25.21" y1="143.98" x2="82.89" y2="143.98"/>
	
		<line fill="none" stroke="#000000" stroke-linecap="square" stroke-miterlimit="10" x1="32.56" y1="114.21" x2="32.56" y2="143.98"/>
	
		<line fill="none" stroke="#000000" stroke-linecap="square" stroke-miterlimit="10" x1="75.82" y1="113.96" x2="75.82" y2="143.98"/>
	
		<line fill="none" stroke="#000000" stroke-linecap="square" stroke-miterlimit="10" x1="82.89" y1="114.22" x2="82.89" y2="143.98"/>
	
		<line fill="none" stroke="#000000" stroke-linecap="square" stroke-miterlimit="10" x1="82.89" y1="113.89" x2="25.21" y2="113.89"/>
	
		<line fill="none" stroke="#000000" stroke-linecap="square" stroke-miterlimit="10" x1="25.21" y1="136.63" x2="82.89" y2="136.63"/>
	
		<line fill="none" stroke="#000000" stroke-linecap="square" stroke-miterlimit="10" x1="25.21" y1="129.37" x2="82.89" y2="129.37"/>
	
		<line fill="none" stroke="#000000" stroke-linecap="square" stroke-miterlimit="10" x1="39.54" y1="143.98" x2="39.54" y2="114.05"/>
	<line fill="none" stroke="#000000" stroke-linecap="square" stroke-miterlimit="10" x1="46.8" y1="114.13" x2="46.8" y2="143.98"/>
	
		<line fill="none" stroke="#000000" stroke-linecap="square" stroke-miterlimit="10" x1="54.05" y1="143.98" x2="54.05" y2="114.08"/>
	
		<line fill="none" stroke="#000000" stroke-linecap="square" stroke-miterlimit="10" x1="61.31" y1="114.02" x2="61.31" y2="143.98"/>
	
		<line fill="none" stroke="#000000" stroke-linecap="square" stroke-miterlimit="10" x1="68.47" y1="143.98" x2="68.47" y2="114.01"/>
	<text transform="matrix(1 0 0 1 27.7037 148.2506)" font-family="'OCRA'" font-size="4px">1</text>
	<text transform="matrix(1 0 0 1 34.9037 148.2521)" font-family="'OCRA'" font-size="4px">2</text>
	<text transform="matrix(1 0 0 1 42.104 148.2505)" font-family="'OCRA'" font-size="4px">3</text>
	<text transform="matrix(1 0 0 1 49.3038 148.2502)" font-family="'OCRA'" font-size="4px">4</text>
	<text transform="matrix(1 0 0 1 56.5041 148.2499)" font-family="'OCRA'" font-size="4px">5</text>
	<text transform="matrix(1 0 0 1 63.7039 148.2498)" font-family="'OCRA'" font-size="4px">6</text>
	<text transform="matrix(1 0 0 1 70.9037 148.2495)" font-family="'OCRA'" font-size="4px">7</text>
	<text transform="matrix(1 0 0 1 78.104 148.2492)" font-family="'OCRA'" font-size="4px">8</text>
	
		<line fill="none" stroke="#000000" stroke-linecap="square" stroke-miterlimit="10" x1="126.14" y1="114.43" x2="126.14" y2="142.45"/>
	
		<line fill="none" stroke="#000000" stroke-linecap="square" stroke-miterlimit="10" x1="198.28" y1="143.98" x2="127.06" y2="143.98"/>
	
		<line fill="none" stroke="#000000" stroke-linecap="square" stroke-miterlimit="10" x1="198.28" y1="114.18" x2="198.28" y2="143.98"/>
	<line fill="none" stroke="#000000" stroke-miterlimit="10" x1="133.12" y1="143.98" x2="133.12" y2="113.46"/>
	<line fill="none" stroke="#000000" stroke-miterlimit="10" x1="140.52" y1="143.98" x2="140.52" y2="113.57"/>
	<line fill="none" stroke="#000000" stroke-miterlimit="10" x1="147.91" y1="143.98" x2="147.91" y2="113.76"/>
	<line fill="none" stroke="#000000" stroke-miterlimit="10" x1="154.89" y1="143.98" x2="154.89" y2="113.74"/>
	<line fill="none" stroke="#000000" stroke-miterlimit="10" x1="162.21" y1="143.98" x2="162.21" y2="113.44"/>
	<line fill="none" stroke="#000000" stroke-miterlimit="10" x1="169.4" y1="143.98" x2="169.4" y2="113.71"/>
	<line fill="none" stroke="#000000" stroke-miterlimit="10" x1="176.8" y1="143.98" x2="176.8" y2="113.71"/>
	<line fill="none" stroke="#000000" stroke-miterlimit="10" x1="183.91" y1="143.98" x2="183.91" y2="113.51"/>
	<line fill="none" stroke="#000000" stroke-miterlimit="10" x1="191.17" y1="143.98" x2="191.17" y2="113.61"/>
	
		<line fill="none" stroke="#000000" stroke-linecap="square" stroke-miterlimit="10" x1="126.14" y1="113.89" x2="198.28" y2="113.89"/>
	
		<line fill="none" stroke="#000000" stroke-linecap="square" stroke-miterlimit="10" x1="198.28" y1="129.37" x2="126.14" y2="129.37"/>
	
		<line fill="none" stroke="#000000" stroke-linecap="square" stroke-miterlimit="10" x1="126.14" y1="136.63" x2="198.28" y2="136.63"/>
	<text transform="matrix(1 0 0 1 128.6802 148.2521)" font-family="'OCRA'" font-size="4px">9</text>
	<text transform="matrix(1 0 0 1 133.958 148.2518)" font-family="'OCRA'" font-size="4px">10</text>
	<text transform="matrix(1 0 0 1 141.7204 148.2517)" font-family="'OCRA'" font-size="4px">11</text>
	<text transform="matrix(1 0 0 1 148.5394 148.2518)" font-family="'OCRA'" font-size="4px">12</text>
	<text transform="matrix(1 0 0 1 155.7253 148.252)" font-family="'OCRA'" font-size="4px">13</text>
	<text transform="matrix(1 0 0 1 163.0509 148.2514)" font-family="'OCRA'" font-size="4px">14</text>
	<text transform="matrix(1 0 0 1 170.2372 148.2521)" font-family="'OCRA'" font-size="4px">15</text>
	<text transform="matrix(1 0 0 1 177.8418 148.2514)" font-family="'OCRA'" font-size="4px">16</text>
	<text transform="matrix(1 0 0 1 184.8184 148.251)" font-family="'OCRA'" font-size="4px">17</text>
	<text transform="matrix(1 0 0 1 192.1438 148.2507)" font-family="'OCRA'" font-size="4px">18</text>
	<text transform="matrix(0 -1 1 0 131.0959 128.457)" font-family="'OCRA'" font-size="4px">3.3V</text>
	<text transform="matrix(0 -1 1 0 138.3656 128.459)" font-family="'OCRA'" font-size="4px">SWCLK</text>
	<text transform="matrix(0 -1 1 0 145.6526 128.457)" font-family="'OCRA'" font-size="4px">GND</text>
	<text transform="matrix(0 -1 1 0 152.7686 128.459)" font-family="'OCRA'" font-size="4px">SWDIO</text>
	<text transform="matrix(0 -1 1 0 159.9895 128.459)" font-family="'OCRA'" font-size="4px">U_TX</text>
	<text transform="matrix(0 -1 1 0 167.2686 128.458)" font-family="'OCRA'" font-size="4px">U_RX</text>
	<text transform="matrix(0 -1 1 0 174.7144 128.458)" font-family="'OCRA'" font-size="4px">PC1</text>
	<text transform="matrix(0 -1 1 0 181.7919 128.457)" font-family="'OCRA'" font-size="4px">PC0</text>
	<text transform="matrix(0 -1 1 0 189.1145 128.459)" font-family="'OCRA'" font-size="4px">PB14</text>
	<text transform="matrix(0 -1 1 0 196.3143 128.457)" font-family="'OCRA'" font-size="4px">GND</text>
	<text transform="matrix(0 -1 1 0 30.2264 128.4609)" font-family="'OCRA'" font-size="4px">5V</text>
	<text transform="matrix(0 -1 1 0 37.5135 128.458)" font-family="'OCRA'" font-size="4px">PA7</text>
	<text transform="matrix(0 -1 1 0 44.6296 128.458)" font-family="'OCRA'" font-size="4px">PA6</text>
	<text transform="matrix(0 -1 1 0 52.1385 128.458)" font-family="'OCRA'" font-size="4px">PA4</text>
	<text transform="matrix(0 -1 1 0 59.3386 128.458)" font-family="'OCRA'" font-size="4px">SWO</text>
	<text transform="matrix(-4.740000e-03 -1 1 -4.740000e-03 66.2825 128.4424)" font-family="'OCRA'" font-size="4px">PB2</text>
	<text transform="matrix(-4.740000e-03 -1 1 -4.740000e-03 73.7435 128.4424)" font-family="'OCRA'" font-size="4px">PC3</text>
	<text transform="matrix(0 -1 1 0 80.6296 128.459)" font-family="'OCRA'" font-size="4px">GND</text>
	<path id="silkscreen_path" d="M215.71,2.77l1.52,0.76
		c2.94,1.46,4.64,3.54,5.88,7.18l0.5,1.45l-0.19,47.61c-0.11,24.48-0.24,53.6-0.26,61.86l-0.07,13.85l-0.68,1.37
		c-0.78,1.64-1.83,2.79-3.64,3.95c-1.96,1.27-2.95,1.5-10.94,1.5h-6.79h-0.41l-0.29,0.29l-0.7,0.7c-0.99,0.99-0.99,1.49-0.99,3.6
		v1.19H163.3h-35.35v-0.16c0-1.7-0.18-3.92-1.03-4.81c-0.65-0.72-0.72-0.8-8.92-0.8c-2.93,0-6.94,0.01-12.48,0.03
		c-2.06,0.01-3.92,0.01-5.6,0.01c-12.78,0.02-15.08,0.03-16.15,1.18c-0.58,0.63-0.52,1.39-0.47,2.06c0.02,0.22,0.04,0.46,0.04,0.73
		c0,0.62-0.02,1.18-0.05,1.56c-2.04,0.17-10.15,0.18-28.44,0.18H26.62l-0.09-1.04c-0.09-1.02-0.31-2.37-0.59-2.97
		c-0.8-1.53-1.74-1.74-5.06-1.74c-0.88,0-1.97,0.02-3.33,0.04c-1.02,0.02-2.04,0.03-2.99,0.03c-2.41,0-3.86-0.07-4.25-0.14
		c-4.57-0.71-7.54-3.67-8.59-8.56c-0.48-2.24-0.58-22.73-0.63-79.34L1.06,12.85l0.5-1.91c0.49-1.98,1.24-3.67,2.18-4.9
		C4.4,5.19,7.1,3.42,8.25,3.08C9.9,2.86,34.41,2.79,112.53,2.79L215.71,2.77 M215.95,1.77l-103.4,0.02C31.52,1.79,8.9,1.86,8.03,2.1
		C6.68,2.46,3.75,4.39,2.95,5.42c-1.01,1.32-1.83,3.13-2.36,5.27l-0.53,2.02l0.02,41.64c0.05,60.63,0.17,77.31,0.65,79.55
		c1.13,5.27,4.45,8.57,9.41,9.34c0.53,0.1,2.28,0.15,4.4,0.15c0.95,0,1.98-0.01,3.01-0.03c1.35-0.02,2.43-0.04,3.31-0.04
		c3.35,0,3.68,0.24,4.18,1.2c0.17,0.36,0.39,1.52,0.48,2.6l0.17,1.95h29.17c26.4,0,29.2-0.05,29.34-0.39
		c0.07-0.22,0.14-1.28,0.14-2.36c0-3.23-2.38-2.91,21.18-2.98c5.53-0.02,9.55-0.03,12.48-0.03c7.74,0,7.84,0.1,8.18,0.47
		c0.48,0.51,0.77,2.07,0.77,4.14v1.16h36.35h36.35v-2.19c0-2.09,0.02-2.21,0.7-2.89l0.7-0.7h6.79c7.85,0,9.22-0.19,11.48-1.66
		c1.95-1.25,3.13-2.53,4-4.36l0.77-1.56l0.07-14.08c0.02-7.75,0.14-35.58,0.26-61.86L224.61,12l-0.55-1.61
		c-1.32-3.9-3.18-6.16-6.38-7.75L215.95,1.77L215.95,1.77z"/>
</g>
</svg>
