<?xml version="1.0" encoding="utf-8"?>
<!-- Generator: Adobe Illustrator 27.0.0, SVG Export Plug-In . SVG Version: 6.00 Build 0)  -->
<svg version="1.1" baseProfile="basic" xmlns="http://www.w3.org/2000/svg" xmlns:xlink="http://www.w3.org/1999/xlink" x="0px"
	 y="0px" width="222.4px" height="148.8px" viewBox="0 0 222.4 148.8" xml:space="preserve">
<g id="Pins" display="none">
	<g id="Physical_Pins" display="inline">
		<circle id="connector0pin" fill="none" stroke="#FFBF00" stroke-width="1.44" cx="28.6" cy="138" r="2.1"/>
		<circle id="connector1pin" fill="none" stroke="#FFBF00" stroke-width="1.44" cx="35.8" cy="138" r="2.1"/>
		<circle id="connector2pin" fill="none" stroke="#FFBF00" stroke-width="1.44" cx="43" cy="138" r="2.1"/>
		<circle id="connector3pin" fill="none" stroke="#FFBF00" stroke-width="1.44" cx="50.2" cy="138" r="2.1"/>
		<circle id="connector4pin" fill="none" stroke="#FFBF00" stroke-width="1.44" cx="57.4" cy="138" r="2.1"/>
		<circle id="connector5pin" fill="none" stroke="#FFBF00" stroke-width="1.44" cx="64.6" cy="138" r="2.1"/>
		<circle id="connector6pin" fill="none" stroke="#FFBF00" stroke-width="1.44" cx="71.8" cy="138" r="2.1"/>
		<circle id="connector7pin" fill="none" stroke="#FFBF00" stroke-width="1.44" cx="79" cy="138" r="2.1"/>
		<circle id="connector8pin" fill="none" stroke="#FFBF00" stroke-width="1.44" cx="86.2" cy="138" r="2.1"/>
		<circle id="connector9pin" fill="none" stroke="#FFBF00" stroke-width="1.44" cx="93.4" cy="138" r="2.1"/>
		<circle id="connector10pin" fill="none" stroke="#FFBF00" stroke-width="1.44" cx="100.6" cy="138" r="2.1"/>
		<circle id="connector11pin" fill="none" stroke="#FFBF00" stroke-width="1.44" cx="107.8" cy="138" r="2.1"/>
		<circle id="connector12pin" fill="none" stroke="#FFBF00" stroke-width="1.44" cx="115" cy="138" r="2.1"/>
		<circle id="connector13pin" fill="none" stroke="#FFBF00" stroke-width="1.44" cx="122.2" cy="138" r="2.1"/>
		<circle id="connector14pin" fill="none" stroke="#FFBF00" stroke-width="1.44" cx="129.4" cy="138" r="2.1"/>
		<circle id="connector15pin" fill="none" stroke="#FFBF00" stroke-width="1.44" cx="136.6" cy="138" r="2.1"/>
		<circle id="connector16pin" fill="none" stroke="#FFBF00" stroke-width="1.44" cx="143.8" cy="138" r="2.1"/>
		<circle id="connector17pin" fill="none" stroke="#FFBF00" stroke-width="1.44" cx="151" cy="138" r="2.1"/>
		<circle id="connector18pin" fill="none" stroke="#FFBF00" stroke-width="1.44" cx="158.2" cy="138" r="2.1"/>
		<circle id="connector19pin" fill="none" stroke="#FFBF00" stroke-width="1.44" cx="165.4" cy="138" r="2.1"/>
		<circle id="connector20pin" fill="none" stroke="#FFBF00" stroke-width="1.44" cx="172.6" cy="138" r="2.1"/>
		<circle id="connector21pin" fill="none" stroke="#FFBF00" stroke-width="1.44" cx="179.8" cy="138" r="2.1"/>
		<circle id="connector22pin" fill="none" stroke="#FFBF00" stroke-width="1.44" cx="187" cy="138" r="2.1"/>
		<circle id="connector23pin" fill="none" stroke="#FFBF00" stroke-width="1.44" cx="194.2" cy="138" r="2.1"/>
		
			<circle id="connector0pin_00000015323357646408762820000000297943352314244005_" fill="none" stroke="#FFBF00" stroke-width="1.44" cx="28.6" cy="138" r="2.1"/>
		
			<circle id="connector1pin_00000011009167834868901980000009521475832258244998_" fill="none" stroke="#FFBF00" stroke-width="1.44" cx="35.8" cy="138" r="2.1"/>
		
			<circle id="connector2pin_00000072982780005295768530000007695999912477372046_" fill="none" stroke="#FFBF00" stroke-width="1.44" cx="43" cy="138" r="2.1"/>
		
			<circle id="connector3pin_00000099641805265008098820000007627527792129025417_" fill="none" stroke="#FFBF00" stroke-width="1.44" cx="50.2" cy="138" r="2.1"/>
		
			<circle id="connector4pin_00000145027404508527926950000002967400057010404242_" fill="none" stroke="#FFBF00" stroke-width="1.44" cx="57.4" cy="138" r="2.1"/>
		
			<circle id="connector5pin_00000076572661327850802760000009691940717600501422_" fill="none" stroke="#FFBF00" stroke-width="1.44" cx="64.6" cy="138" r="2.1"/>
		
			<circle id="connector6pin_00000083048227655820068760000009322229166487990200_" fill="none" stroke="#FFBF00" stroke-width="1.44" cx="71.8" cy="138" r="2.1"/>
		
			<circle id="connector7pin_00000029008253117959308220000017545238265655731902_" fill="none" stroke="#FFBF00" stroke-width="1.44" cx="79" cy="138" r="2.1"/>
		
			<circle id="connector8pin_00000072988338710599073040000011253616020078009475_" fill="none" stroke="#FFBF00" stroke-width="1.44" cx="86.2" cy="138" r="2.1"/>
		
			<circle id="connector9pin_00000160887870534031983300000001544572908934007454_" fill="none" stroke="#FFBF00" stroke-width="1.44" cx="93.4" cy="138" r="2.1"/>
		
			<circle id="connector10pin_00000026121762321496968060000005158230478987545019_" fill="none" stroke="#FFBF00" stroke-width="1.44" cx="100.6" cy="138" r="2.1"/>
		
			<circle id="connector11pin_00000183961200780882063240000005134230642704972445_" fill="none" stroke="#FFBF00" stroke-width="1.44" cx="107.8" cy="138" r="2.1"/>
		
			<circle id="connector12pin_00000118375542543912958440000013718390656101414536_" fill="none" stroke="#FFBF00" stroke-width="1.44" cx="115" cy="138" r="2.1"/>
		
			<circle id="connector13pin_00000151544639508198059580000014397438747306568614_" fill="none" stroke="#FFBF00" stroke-width="1.44" cx="122.2" cy="138" r="2.1"/>
		
			<circle id="connector14pin_00000087382092305310436170000011591872076747556511_" fill="none" stroke="#FFBF00" stroke-width="1.44" cx="129.4" cy="138" r="2.1"/>
		
			<circle id="connector15pin_00000169560149408639477040000014133857270333820337_" fill="none" stroke="#FFBF00" stroke-width="1.44" cx="136.6" cy="138" r="2.1"/>
		
			<circle id="connector16pin_00000142136869986013805330000000206833943958909826_" fill="none" stroke="#FFBF00" stroke-width="1.44" cx="143.8" cy="138" r="2.1"/>
		
			<circle id="connector17pin_00000057866256265466318990000006966003675905082805_" fill="none" stroke="#FFBF00" stroke-width="1.44" cx="151" cy="138" r="2.1"/>
		
			<circle id="connector18pin_00000080184261134925327070000017890777367327941254_" fill="none" stroke="#FFBF00" stroke-width="1.44" cx="158.2" cy="138" r="2.1"/>
		
			<circle id="connector19pin_00000072994489849480015260000007993323252052067210_" fill="none" stroke="#FFBF00" stroke-width="1.44" cx="165.4" cy="138" r="2.1"/>
		
			<circle id="connector20pin_00000076587270285387376290000017395122458309440686_" fill="none" stroke="#FFBF00" stroke-width="1.44" cx="172.6" cy="138" r="2.1"/>
		
			<circle id="connector21pin_00000083775403777054519860000011049404597658739116_" fill="none" stroke="#FFBF00" stroke-width="1.44" cx="179.8" cy="138" r="2.1"/>
		
			<circle id="connector22pin_00000137827058934706766490000016876211895364550539_" fill="none" stroke="#FFBF00" stroke-width="1.44" cx="187" cy="138" r="2.1"/>
		
			<circle id="connector23pin_00000003812324046014750580000007748346595150300858_" fill="none" stroke="#FFBF00" stroke-width="1.44" cx="194.2" cy="138" r="2.1"/>
		<circle id="connector24pin" fill="none" stroke="#FFBF00" stroke-width="1.44" cx="194.2" cy="130.8" r="2.1"/>
		<circle id="connector25pin" fill="none" stroke="#FFBF00" stroke-width="1.44" cx="187" cy="130.8" r="2.1"/>
		<circle id="connector26pin" fill="none" stroke="#FFBF00" stroke-width="1.44" cx="179.8" cy="130.8" r="2.1"/>
		<circle id="connector27pin" fill="none" stroke="#FFBF00" stroke-width="1.44" cx="172.6" cy="130.8" r="2.1"/>
		<circle id="connector28pin" fill="none" stroke="#FFBF00" stroke-width="1.44" cx="165.4" cy="130.8" r="2.1"/>
		<circle id="connector29pin" fill="none" stroke="#FFBF00" stroke-width="1.44" cx="158.2" cy="130.8" r="2.1"/>
		<circle id="connector30pin" fill="none" stroke="#FFBF00" stroke-width="1.44" cx="151" cy="130.8" r="2.1"/>
		<circle id="connector31pin" fill="none" stroke="#FFBF00" stroke-width="1.44" cx="143.8" cy="130.8" r="2.1"/>
		<circle id="connector32pin" fill="none" stroke="#FFBF00" stroke-width="1.44" cx="136.6" cy="130.8" r="2.1"/>
		<circle id="connector33pin" fill="none" stroke="#FFBF00" stroke-width="1.44" cx="129.4" cy="130.8" r="2.1"/>
		<circle id="connector34pin" fill="none" stroke="#FFBF00" stroke-width="1.44" cx="122.2" cy="130.8" r="2.1"/>
		<circle id="connector35pin" fill="none" stroke="#FFBF00" stroke-width="1.44" cx="115" cy="130.8" r="2.1"/>
		<circle id="connector36pin" fill="none" stroke="#FFBF00" stroke-width="1.44" cx="107.8" cy="130.8" r="2.1"/>
		<circle id="connector37pin" fill="none" stroke="#FFBF00" stroke-width="1.44" cx="100.6" cy="130.8" r="2.1"/>
		<circle id="connector38pin" fill="none" stroke="#FFBF00" stroke-width="1.44" cx="93.4" cy="130.8" r="2.1"/>
		<circle id="connector39pin" fill="none" stroke="#FFBF00" stroke-width="1.44" cx="86.2" cy="130.8" r="2.1"/>
		<circle id="connector40pin" fill="none" stroke="#FFBF00" stroke-width="1.44" cx="79" cy="130.8" r="2.1"/>
		<circle id="connector41pin" fill="none" stroke="#FFBF00" stroke-width="1.44" cx="71.8" cy="130.8" r="2.1"/>
		<circle id="connector42pin" fill="none" stroke="#FFBF00" stroke-width="1.44" cx="64.6" cy="130.8" r="2.1"/>
		<circle id="connector43pin" fill="none" stroke="#FFBF00" stroke-width="1.44" cx="57.4" cy="130.8" r="2.1"/>
		<circle id="connector44pin" fill="none" stroke="#FFBF00" stroke-width="1.44" cx="50.2" cy="130.8" r="2.1"/>
		<circle id="connector45pin" fill="none" stroke="#FFBF00" stroke-width="1.44" cx="43" cy="130.8" r="2.1"/>
		<circle id="connector46pin" fill="none" stroke="#FFBF00" stroke-width="1.44" cx="35.8" cy="130.8" r="2.1"/>
		<circle id="connector47pin" fill="none" stroke="#FFBF00" stroke-width="1.44" cx="28.6" cy="130.8" r="2.1"/>
	</g>
	<line display="inline" fill="none" stroke="#000000" stroke-width="0.72" x1="25" y1="141.6" x2="197.8" y2="141.6"/>
	<line display="inline" fill="none" stroke="#000000" stroke-width="0.72" x1="197.8" y1="141.6" x2="197.8" y2="127.2"/>
	<line display="inline" fill="none" stroke="#000000" stroke-width="0.72" x1="197.8" y1="127.2" x2="25" y2="127.2"/>
	<line display="inline" fill="none" stroke="#000000" stroke-width="0.72" x1="25" y1="127.2" x2="25" y2="141.6"/>
	<line display="inline" fill="none" stroke="#000000" stroke-width="0.36" x1="27.5" y1="141.6" x2="25" y2="139"/>
</g>
<g id="Flipper_Zero_Large_Prototype_Board">
	<g id="board">
		<g id="boardoutline">
			<path fill-opacity="0.5" fill="#FFFFFF" d="M0,11.3v119.1c0,6.3,5.1,11.3,11.3,11.3h11.7c0.8,0,1.4,0.6,1.4,1.4v4.3
				c0,0.8,0.6,1.4,1.4,1.4h55.3c0.8,0,1.4-0.6,1.4-1.4v-4.3c0-0.8,0.6-1.4,1.4-1.4h40.4c0.8,0,1.4,0.6,1.4,1.4v4.3
				c0,0.8,0.6,1.4,1.4,1.4h69.4c0.8,0,1.4-0.6,1.4-1.4v-4.3c0-0.8,0.6-1.4,1.4-1.4h12c6.3,0,11.3-5.1,11.3-11.3V11.3
				c0-6.3-5.1-11.3-11.3-11.3H11.3C5.1,0,0,5.1,0,11.3z"/>
		</g>
	</g>
	<g id="silkscreen">
		<g id="Right_Pins_Numbers_00000031196017109398285850000018238356356827412138_">
			<text transform="matrix(1 0 0 1 128.0313 146.7551)" font-family="'OCRA'" font-size="4px">9</text>
			<text transform="matrix(1 0 0 1 133.8007 146.7548)" font-family="'OCRA'" font-size="4px">10</text>
			<text transform="matrix(1 0 0 1 141.0011 146.7563)" font-family="'OCRA'" font-size="4px">11</text>
			<text transform="matrix(1 0 0 1 148.2001 146.7553)" font-family="'OCRA'" font-size="4px">12</text>
			<text transform="matrix(1 0 0 1 155.4007 146.7557)" font-family="'OCRA'" font-size="4px">13</text>
			<text transform="matrix(1 0 0 1 162.6483 146.7552)" font-family="'OCRA'" font-size="4px">14</text>
			<text transform="matrix(1 0 0 1 169.8011 146.7557)" font-family="'OCRA'" font-size="4px">15</text>
			<text transform="matrix(1 0 0 1 177.0008 146.7557)" font-family="'OCRA'" font-size="4px">16</text>
			<text transform="matrix(1 0 0 1 184.2012 146.7548)" font-family="'OCRA'" font-size="4px">17</text>
			<text transform="matrix(1 0 0 1 191.4007 146.7557)" font-family="'OCRA'" font-size="4px">18</text>
		</g>
		<g id="Right_Pins_Pinout_00000003104847287066081840000010653974618350055081_">
			<rect x="125.8" y="113.2" fill="none" stroke="#000000" stroke-width="0.72" width="7.2" height="28.3"/>
			<rect x="133" y="113.2" fill="none" stroke="#000000" stroke-width="0.72" width="7.2" height="28.3"/>
			<rect x="140.2" y="113.2" fill="none" stroke="#000000" stroke-width="0.72" width="7.2" height="28.3"/>
			<rect x="147.4" y="113.2" fill="none" stroke="#000000" stroke-width="0.72" width="7.2" height="28.3"/>
			<rect x="154.6" y="113.2" fill="none" stroke="#000000" stroke-width="0.72" width="7.2" height="28.3"/>
			<rect x="161.8" y="113.2" fill="none" stroke="#000000" stroke-width="0.72" width="7.2" height="28.3"/>
			<rect x="169" y="113.2" fill="none" stroke="#000000" stroke-width="0.72" width="7.2" height="28.3"/>
			<rect x="176.2" y="113.2" fill="none" stroke="#000000" stroke-width="0.72" width="7.2" height="28.3"/>
			<rect x="183.4" y="113.2" fill="none" stroke="#000000" stroke-width="0.72" width="7.2" height="28.3"/>
			<rect x="190.6" y="113.2" fill="none" stroke="#000000" stroke-width="0.72" width="7.2" height="28.3"/>
			<rect x="125.8" y="113.1" fill="none" stroke="#000000" stroke-width="0.72" width="72" height="14"/>
			<text transform="matrix(0 -1 1 0 131.0666 126.4819)" font-family="'OCRA'" font-size="4.5px">3.3V</text>
			<text transform="matrix(0 -1 1 0 138.2667 126.4819)" font-family="'OCRA'" font-size="4.5px">SWC</text>
			<text transform="matrix(0 -1 1 0 145.4666 126.4819)" font-family="'OCRA'" font-size="4.5px">GND</text>
			<text transform="matrix(0 -1 1 0 152.6667 126.4819)" font-family="'OCRA'" font-size="4.5px">SIO</text>
			<text transform="matrix(0 -1 1 0 159.8665 126.4819)" font-family="'OCRA'" font-size="4.5px">TX</text>
			<text transform="matrix(0 -1 1 0 167.0666 126.4819)" font-family="'OCRA'" font-size="4.5px">RX</text>
			<text transform="matrix(0 -1 1 0 174.2663 126.4819)" font-family="'OCRA'" font-size="4.5px">C1</text>
			<text transform="matrix(0 -1 1 0 181.4659 126.4819)" font-family="'OCRA'" font-size="4.5px">C0</text>
			<text transform="matrix(0 -1 1 0 188.6665 126.4819)" font-family="'OCRA'" font-size="4.5px">1W</text>
			<text transform="matrix(0 -1 1 0 195.8669 126.4819)" font-family="'OCRA'" font-size="4.5px">GND</text>
		</g>
		<g id="Left_Pins_Numbers_00000181064337828123565890000013685702150357918893_">
			<text transform="matrix(1 0 0 1 27.2309 146.7554)" font-family="'OCRA'" font-size="4px">1</text>
			<text transform="matrix(1 0 0 1 34.4301 146.7553)" font-family="'OCRA'" font-size="4px">2</text>
			<text transform="matrix(1 0 0 1 41.6304 146.7553)" font-family="'OCRA'" font-size="4px">3</text>
			<text transform="matrix(1 0 0 1 48.8319 146.7543)" font-family="'OCRA'" font-size="4px">4</text>
			<text transform="matrix(1 0 0 1 56.0311 146.7553)" font-family="'OCRA'" font-size="4px">5</text>
			<text transform="matrix(1 0 0 1 63.2316 146.7553)" font-family="'OCRA'" font-size="4px">6</text>
			<text transform="matrix(1 0 0 1 70.4309 146.7551)" font-family="'OCRA'" font-size="4px">7</text>
			<text transform="matrix(1 0 0 1 77.6309 146.7543)" font-family="'OCRA'" font-size="4px">8</text>
		</g>
		<g id="Left_Pins_Pinout_00000041294711181180473370000001082165343608424125_">
			<rect x="25" y="113.2" fill="none" stroke="#000000" stroke-width="0.72" width="7.2" height="28.3"/>
			<rect x="32.2" y="113.2" fill="none" stroke="#000000" stroke-width="0.72" width="7.2" height="28.3"/>
			<rect x="39.4" y="113.2" fill="none" stroke="#000000" stroke-width="0.72" width="7.2" height="28.3"/>
			<rect x="46.6" y="113.2" fill="none" stroke="#000000" stroke-width="0.72" width="7.2" height="28.3"/>
			<rect x="53.8" y="113.2" fill="none" stroke="#000000" stroke-width="0.72" width="7.2" height="28.3"/>
			<rect x="61" y="113.2" fill="none" stroke="#000000" stroke-width="0.72" width="7.2" height="28.3"/>
			<rect x="68.2" y="113.2" fill="none" stroke="#000000" stroke-width="0.72" width="7.2" height="28.3"/>
			<rect x="75.4" y="113.2" fill="none" stroke="#000000" stroke-width="0.72" width="7.2" height="28.3"/>
			<rect x="25" y="113.2" fill="none" stroke="#000000" stroke-width="0.72" width="57.6" height="14"/>
			<text transform="matrix(0 -1 1 0 30.2665 126.517)" font-family="'OCRA'" font-size="4.5px">5V</text>
			<text transform="matrix(0 -1 1 0 37.4666 126.517)" font-family="'OCRA'" font-size="4.5px">A7</text>
			<text transform="matrix(0 -1 1 0 44.6666 126.517)" font-family="'OCRA'" font-size="4.5px">A6</text>
			<text transform="matrix(0 -1 1 0 51.8666 126.517)" font-family="'OCRA'" font-size="4.5px">A4</text>
			<text transform="matrix(0 -1 1 0 59.0667 126.517)" font-family="'OCRA'" font-size="4.5px">B3</text>
			<text transform="matrix(0 -1 1 0 66.2664 126.517)" font-family="'OCRA'" font-size="4.5px">B2</text>
			<text transform="matrix(0 -1 1 0 73.4668 126.519)" font-family="'OCRA'" font-size="4.5px">C3</text>
			<text transform="matrix(0 -1 1 0 80.6667 126.517)" font-family="'OCRA'" font-size="4.5px">GND</text>
		</g>
		<g id="PCB_Mounting_Holes" display="none">
			<g id="Bottom_Right" display="inline">
				<g id="Screw_Trace_00000149383738260858772140000002859635074987440563_">
					<circle fill="#B3B3B3" cx="211.5" cy="130.4" r="9.9"/>
				</g>
				<circle id="_x33_.2mm_Hole_00000028302968025608393440000009695133814323808929_" cx="211.5" cy="130.4" r="4.5"/>
			</g>
			<g id="Bottom_Left" display="inline">
				<g id="Screw_Trace_00000068662664410635844620000012797321832537623957_">
					<circle fill="#B3B3B3" cx="11.3" cy="130.4" r="9.9"/>
				</g>
				<circle id="_x33_.2mm_Hole_00000030464085020304044150000015841688593030159795_" cx="11.3" cy="130.4" r="4.5"/>
			</g>
			<g id="Top_Right" display="inline">
				<g id="Screw_Trace">
					<circle fill="#B3B3B3" cx="211.5" cy="11.3" r="9.9"/>
				</g>
				<circle id="_x33_.2mm_Hole" cx="211.5" cy="11.3" r="4.5"/>
			</g>
			<g id="Top_Left" display="inline">
				<g id="Screw_Trace_00000181805704123151219420000008554133884256609943_">
					<circle fill="#B3B3B3" cx="11.3" cy="11.3" r="9.9"/>
				</g>
				<circle id="_x33_.2mm_Hole_00000039848797346988237880000007669813522511939477_" cx="11.3" cy="11.3" r="4.5"/>
			</g>
		</g>
	</g>
</g>
</svg>
