<?xml version="1.0" encoding="utf-8"?>
<!-- Generator: Adobe Illustrator 27.0.0, SVG Export Plug-In . SVG Version: 6.00 Build 0)  -->
<svg version="1.1" baseProfile="basic" id="Flipper_Zero_Large_Prototype_Board"
	 xmlns="http://www.w3.org/2000/svg" xmlns:xlink="http://www.w3.org/1999/xlink" x="0px" y="0px" width="222.4px" height="148.8px"
	 viewBox="0 0 222.4 148.8" xml:space="preserve">
<g id="board">
	<path id="boardoutline" fill-opacity="0.5" fill="#FFFFFF" d="M0,11.3v119.1c0,6.3,5.1,11.3,11.3,11.3h11.7c0.8,0,1.4,0.6,1.4,1.4v4.3
		c0,0.8,0.6,1.4,1.4,1.4h55.3c0.8,0,1.4-0.6,1.4-1.4v-4.3c0-0.8,0.6-1.4,1.4-1.4h40.4c0.8,0,1.4,0.6,1.4,1.4v4.3
		c0,0.8,0.6,1.4,1.4,1.4h69.4c0.8,0,1.4-0.6,1.4-1.4v-4.3c0-0.8,0.6-1.4,1.4-1.4h12c6.3,0,11.3-5.1,11.3-11.3V11.3
		c0-6.3-5.1-11.3-11.3-11.3H11.3C5.1,0,0,5.1,0,11.3z"/>
</g>
<g id="silkscreen">
	<g id="Right_Pins_Numbers_00000031196017109398285850000018238356356827412138_">
		<text transform="matrix(1 0 0 1 128.0313 146.7551)" font-family="'OCRA'" font-size="4px">9</text>
		<text transform="matrix(1 0 0 1 133.8007 146.7548)" font-family="'OCRA'" font-size="4px">10</text>
		<text transform="matrix(1 0 0 1 141.0011 146.7563)" font-family="'OCRA'" font-size="4px">11</text>
		<text transform="matrix(1 0 0 1 148.2001 146.7553)" font-family="'OCRA'" font-size="4px">12</text>
		<text transform="matrix(1 0 0 1 155.4007 146.7557)" font-family="'OCRA'" font-size="4px">13</text>
		<text transform="matrix(1 0 0 1 162.6483 146.7552)" font-family="'OCRA'" font-size="4px">14</text>
		<text transform="matrix(1 0 0 1 169.8011 146.7557)" font-family="'OCRA'" font-size="4px">15</text>
		<text transform="matrix(1 0 0 1 177.0008 146.7557)" font-family="'OCRA'" font-size="4px">16</text>
		<text transform="matrix(1 0 0 1 184.2012 146.7548)" font-family="'OCRA'" font-size="4px">17</text>
		<text transform="matrix(1 0 0 1 191.4007 146.7557)" font-family="'OCRA'" font-size="4px">18</text>
	</g>
	<g id="Right_Pins_Pinout_00000003104847287066081840000010653974618350055081_">
		<rect x="125.8" y="113.2" fill="none" stroke="#000000" stroke-width="0.72" width="7.2" height="28.3"/>
		<rect x="133" y="113.2" fill="none" stroke="#000000" stroke-width="0.72" width="7.2" height="28.3"/>
		<rect x="140.2" y="113.2" fill="none" stroke="#000000" stroke-width="0.72" width="7.2" height="28.3"/>
		<rect x="147.4" y="113.2" fill="none" stroke="#000000" stroke-width="0.72" width="7.2" height="28.3"/>
		<rect x="154.6" y="113.2" fill="none" stroke="#000000" stroke-width="0.72" width="7.2" height="28.3"/>
		<rect x="161.8" y="113.2" fill="none" stroke="#000000" stroke-width="0.72" width="7.2" height="28.3"/>
		<rect x="169" y="113.2" fill="none" stroke="#000000" stroke-width="0.72" width="7.2" height="28.3"/>
		<rect x="176.2" y="113.2" fill="none" stroke="#000000" stroke-width="0.72" width="7.2" height="28.3"/>
		<rect x="183.4" y="113.2" fill="none" stroke="#000000" stroke-width="0.72" width="7.2" height="28.3"/>
		<rect x="190.6" y="113.2" fill="none" stroke="#000000" stroke-width="0.72" width="7.2" height="28.3"/>
		<rect x="125.8" y="113.1" fill="none" stroke="#000000" stroke-width="0.72" width="72" height="14"/>
		<text transform="matrix(0 -1 1 0 131.0666 126.4819)" font-family="'OCRA'" font-size="4.5px">3.3V</text>
		<text transform="matrix(0 -1 1 0 138.2667 126.4819)" font-family="'OCRA'" font-size="4.5px">SWC</text>
		<text transform="matrix(0 -1 1 0 145.4666 126.4819)" font-family="'OCRA'" font-size="4.5px">GND</text>
		<text transform="matrix(0 -1 1 0 152.6667 126.4819)" font-family="'OCRA'" font-size="4.5px">SIO</text>
		<text transform="matrix(0 -1 1 0 159.8665 126.4819)" font-family="'OCRA'" font-size="4.5px">TX</text>
		<text transform="matrix(0 -1 1 0 167.0666 126.4819)" font-family="'OCRA'" font-size="4.5px">RX</text>
		<text transform="matrix(0 -1 1 0 174.2663 126.4819)" font-family="'OCRA'" font-size="4.5px">C1</text>
		<text transform="matrix(0 -1 1 0 181.4659 126.4819)" font-family="'OCRA'" font-size="4.5px">C0</text>
		<text transform="matrix(0 -1 1 0 188.6665 126.4819)" font-family="'OCRA'" font-size="4.5px">1W</text>
		<text transform="matrix(0 -1 1 0 195.8669 126.4819)" font-family="'OCRA'" font-size="4.5px">GND</text>
	</g>
	<g id="Left_Pins_Numbers_00000181064337828123565890000013685702150357918893_">
		<text transform="matrix(1 0 0 1 27.2309 146.7554)" font-family="'OCRA'" font-size="4px">1</text>
		<text transform="matrix(1 0 0 1 34.4301 146.7553)" font-family="'OCRA'" font-size="4px">2</text>
		<text transform="matrix(1 0 0 1 41.6304 146.7553)" font-family="'OCRA'" font-size="4px">3</text>
		<text transform="matrix(1 0 0 1 48.8319 146.7543)" font-family="'OCRA'" font-size="4px">4</text>
		<text transform="matrix(1 0 0 1 56.0311 146.7553)" font-family="'OCRA'" font-size="4px">5</text>
		<text transform="matrix(1 0 0 1 63.2316 146.7553)" font-family="'OCRA'" font-size="4px">6</text>
		<text transform="matrix(1 0 0 1 70.4309 146.7551)" font-family="'OCRA'" font-size="4px">7</text>
		<text transform="matrix(1 0 0 1 77.6309 146.7543)" font-family="'OCRA'" font-size="4px">8</text>
	</g>
	<g id="Left_Pins_Pinout_00000041294711181180473370000001082165343608424125_">
		<rect x="25" y="113.2" fill="none" stroke="#000000" stroke-width="0.72" width="7.2" height="28.3"/>
		<rect x="32.2" y="113.2" fill="none" stroke="#000000" stroke-width="0.72" width="7.2" height="28.3"/>
		<rect x="39.4" y="113.2" fill="none" stroke="#000000" stroke-width="0.72" width="7.2" height="28.3"/>
		<rect x="46.6" y="113.2" fill="none" stroke="#000000" stroke-width="0.72" width="7.2" height="28.3"/>
		<rect x="53.8" y="113.2" fill="none" stroke="#000000" stroke-width="0.72" width="7.2" height="28.3"/>
		<rect x="61" y="113.2" fill="none" stroke="#000000" stroke-width="0.72" width="7.2" height="28.3"/>
		<rect x="68.2" y="113.2" fill="none" stroke="#000000" stroke-width="0.72" width="7.2" height="28.3"/>
		<rect x="75.4" y="113.2" fill="none" stroke="#000000" stroke-width="0.72" width="7.2" height="28.3"/>
		<rect x="25" y="113.2" fill="none" stroke="#000000" stroke-width="0.72" width="57.6" height="14"/>
		<text transform="matrix(0 -1 1 0 30.2665 126.517)" font-family="'OCRA'" font-size="4.5px">5V</text>
		<text transform="matrix(0 -1 1 0 37.4666 126.517)" font-family="'OCRA'" font-size="4.5px">A7</text>
		<text transform="matrix(0 -1 1 0 44.6666 126.517)" font-family="'OCRA'" font-size="4.5px">A6</text>
		<text transform="matrix(0 -1 1 0 51.8666 126.517)" font-family="'OCRA'" font-size="4.5px">A4</text>
		<text transform="matrix(0 -1 1 0 59.0667 126.517)" font-family="'OCRA'" font-size="4.5px">B3</text>
		<text transform="matrix(0 -1 1 0 66.2664 126.517)" font-family="'OCRA'" font-size="4.5px">B2</text>
		<text transform="matrix(0 -1 1 0 73.4668 126.519)" font-family="'OCRA'" font-size="4.5px">C3</text>
		<text transform="matrix(0 -1 1 0 80.6667 126.517)" font-family="'OCRA'" font-size="4.5px">GND</text>
	</g>
</g>
</svg>
